<?xml version="1.0" standalone="no"?>
<!DOCTYPE svg PUBLIC "-//W3C//DTD SVG 20010904//EN"
 "http://www.w3.org/TR/2001/REC-SVG-20010904/DTD/svg10.dtd">
<svg version="1.0" xmlns="http://www.w3.org/2000/svg"
 width="700.000000pt" height="700.000000pt" viewBox="0 0 700.000000 700.000000"
 preserveAspectRatio="xMidYMid meet">
<metadata>
Created by potrace 1.14, written by Peter Selinger 2001-2017
</metadata>
<g transform="translate(0.000000,700.000000) scale(0.100000,-0.100000)"
fill="grey" stroke="none">
<path d="M1100 4300 l0 -400 400 0 400 0 0 -800 0 -800 400 0 400 0 0 800 0
800 400 0 400 0 0 -800 0 -800 400 0 400 0 0 400 0 400 400 0 400 0 0 -400 0
-400 400 0 400 0 0 1200 0 1200 -400 0 -400 0 0 -400 0 -400 -400 0 -400 0 0
400 0 400 -1600 0 -1600 0 0 -400z"/>
</g>
</svg>
