<svg width="24" height="24" viewBox="0 0 24 24" fill="none" xmlns="http://www.w3.org/2000/svg">
<g clip-path="url(#clip0_1_3)">
<circle cx="12" cy="12" r="12" fill="#1E90FF"/>
<path d="M11.88 7.8C12.7548 7.8 13.464 7.09082 13.464 6.216C13.464 5.34118 12.7548 4.632 11.88 4.632C11.0052 4.632 10.296 5.34118 10.296 6.216C10.296 7.09082 11.0052 7.8 11.88 7.8Z" fill="white"/>
<path d="M14.832 18.8164C15.3115 18.8164 15.7003 18.4277 15.7003 17.9481C15.7003 17.4686 15.3115 17.0799 14.832 17.0799H13.3217V10.7356C13.3217 10.23 12.9118 9.82014 12.4062 9.82014H10.0671C9.58938 9.82014 9.20212 10.2074 9.20212 10.6851C9.20212 11.1628 9.58938 11.5501 10.0671 11.5501H11.3701V17.0799H9.86828C9.38874 17.0799 9 17.4686 9 17.9481C9 18.4277 9.38874 18.8164 9.86828 18.8164H14.832Z" fill="white"/>
</g>
<defs>
<clipPath id="clip0_1_3">
<rect width="24" height="24" fill="white"/>
</clipPath>
</defs>
</svg>
