<?xml version="1.0" standalone="no"?>
<!DOCTYPE svg PUBLIC "-//W3C//DTD SVG 20010904//EN"
 "http://www.w3.org/TR/2001/REC-SVG-20010904/DTD/svg10.dtd">
<svg version="1.0" xmlns="http://www.w3.org/2000/svg"
 width="700.000000pt" height="700.000000pt" viewBox="0 0 700.000000 700.000000"
 preserveAspectRatio="xMidYMid meet">
<metadata>
Created by potrace 1.14, written by Peter Selinger 2001-2017
</metadata>
<g transform="translate(0.000000,700.000000) scale(0.100000,-0.100000)"
fill="#000000" stroke="none">
<path d="M0 4665 l0 -585 580 0 580 0 0 -1165 0 -1165 590 0 590 0 0 1165 0
1165 580 0 580 0 0 -1165 0 -1165 585 0 585 0 0 580 0 580 580 0 580 0 0 -580
0 -580 585 0 585 0 0 1750 0 1750 -585 0 -585 0 0 -580 0 -580 -580 0 -580 0
0 580 0 580 -2335 0 -2335 0 0 -585z"/>
</g>
</svg>
