<svg width="24" height="24" viewBox="0 0 24 24" fill="none" xmlns="http://www.w3.org/2000/svg">
<g clip-path="url(#clip0_1_2)">
<path d="M10.0825 16.5188C10.491 16.4114 10.8558 16.2465 11.1733 16.0216C11.4883 15.7986 11.744 15.5097 11.9317 15.1533C12.1177 14.8013 12.2108 14.3826 12.2108 13.8964C12.2108 13.2966 12.0682 12.785 11.777 12.3574C11.4872 11.9327 11.0503 11.6341 10.4601 11.4645C10.8935 11.2595 11.2178 10.9955 11.4385 10.6737C11.6576 10.3514 11.7671 9.94822 11.7671 9.4656C11.7671 9.01939 11.6938 8.64198 11.5477 8.34062C11.398 8.0347 11.1889 7.79183 10.9219 7.60923C10.6507 7.42669 10.3295 7.29352 9.95341 7.2137C9.57511 7.13176 9.16127 7.09207 8.70259 7.09207H4.18218V16.6801H8.82952C9.25905 16.6802 9.67863 16.6262 10.0825 16.5188ZM6.29344 8.72531H8.26852C8.45517 8.72531 8.63757 8.73862 8.81146 8.77262C8.98852 8.803 9.14108 8.85936 9.27617 8.94096C9.41235 9.01935 9.52008 9.13133 9.60148 9.27444C9.68011 9.41755 9.7192 9.60193 9.7192 9.825C9.7192 10.2268 9.60148 10.5198 9.35866 10.697C9.11337 10.877 8.80364 10.9658 8.42964 10.9658H6.29349L6.29344 8.72531ZM6.29344 15.0472V12.4069H8.58848C9.0429 12.4069 9.4123 12.5114 9.68927 12.7215C9.96589 12.9347 10.1049 13.2854 10.1049 13.7796C10.1049 14.0317 10.064 14.2404 9.9787 14.4011C9.89374 14.5632 9.77675 14.6907 9.63558 14.7837C9.4944 14.8803 9.32694 14.9458 9.13816 14.987C8.95219 15.0286 8.7545 15.0471 8.54617 15.0471L6.29344 15.0472Z" fill="black"/>
<path d="M13.7877 15.8505C14.098 16.173 14.4671 16.4204 14.9087 16.597C15.3506 16.7713 15.8427 16.8599 16.3896 16.8599C17.1742 16.8599 17.8477 16.6801 18.3998 16.3194C18.9584 15.9603 19.3679 15.3638 19.6378 14.528H17.9586C17.8935 14.7429 17.7254 14.9499 17.4491 15.1435C17.1703 15.3372 16.8379 15.4345 16.4532 15.4345C15.9184 15.4345 15.5057 15.2942 15.2202 15.0153C14.9336 14.7364 14.748 14.2168 14.748 13.668H19.7577C19.7936 13.1293 19.7499 12.6148 19.6251 12.1224C19.4992 11.6291 19.2979 11.1892 19.0149 10.8047C18.7319 10.4195 18.3717 10.1117 17.9323 9.88468C17.4914 9.65448 16.9769 9.5414 16.3896 9.5414C15.8577 9.5414 15.3773 9.63597 14.9418 9.82391C14.5062 10.0125 14.1322 10.2708 13.8168 10.5981C13.5022 10.9236 13.2629 11.3117 13.0897 11.7614C12.9201 12.2096 12.8334 12.6946 12.8334 13.2137C12.8334 13.7506 12.9169 14.246 13.0826 14.6935C13.2501 15.1435 13.4851 15.5265 13.7877 15.8505ZM14.8351 12.0086C14.8838 11.8353 14.9677 11.6732 15.0908 11.5195C15.2145 11.3684 15.3763 11.2401 15.5736 11.137C15.7755 11.0325 16.0276 10.9813 16.3323 10.9813C16.8005 10.9813 17.1845 11.1169 17.411 11.3677C17.6386 11.6205 17.805 11.98 17.8505 12.4662H14.748C14.7569 12.3307 14.7861 12.1775 14.8351 12.0086Z" fill="black"/>
<path d="M18.2445 7.73528H14.358V8.68237H18.2445V7.73528Z" fill="black"/>
</g>
<defs>
<clipPath id="clip0_1_2">
<rect width="24" height="24" fill="black"/>
</clipPath>
</defs>
</svg>
