<svg width="24" height="24" viewBox="0 0 24 24" fill="none" xmlns="http://www.w3.org/2000/svg">
<g clip-path="url(#clip0_1_51)">
<path d="M5.2278 7.20921C5.36856 7.07995 5.563 7 5.77778 7H18.2222C18.437 7 18.6314 7.07995 18.7722 7.20921M5.2278 7.20921C5.08706 7.33847 5 7.51704 5 7.71429V16.2857C5 16.6802 5.34823 17 5.77778 17H18.2222C18.6518 17 19 16.6802 19 16.2857V7.71429C19 7.51704 18.913 7.33847 18.7722 7.20921M5.2278 7.20921L10.9001 12.4184C11.5075 12.9763 12.4925 12.9763 13.0999 12.4184L18.7722 7.20921" stroke="black" stroke-width="1.2" stroke-linecap="round" stroke-linejoin="round"/>
</g>
<defs>
<clipPath id="clip0_1_51">
<rect width="24" height="24" fill="black"/>
</clipPath>
</defs>
</svg>
